# xmcd CD database file
# Copyright (C) 1995-1998 Ti Kan
#
# Track frame offsets:
#	150
#	15320
#	30690
#	45005
#	57050
#	70510
#	85132
#	99047
#	112925
#	127295
#	141222
#	154070
#	166630
#	179697
#	192332
#	207115
#	221255
#	233960
#	246360
#	259182
#
# Disc length: 3625 seconds
#
# Revision: 9
# Processed by: cddbd v1.4PL0 Copyright (c) Steve Scherf et al.
# Submitted via: CDex 1.30Release
#
DISCID=010e2714
DTITLE=Various Artist - Preachin' The Gospel - Holy Blues
DYEAR=1991
DGENRE=Blues
TTITLE0=Blind Willie Johnson - Motherless Children Have A Hard Time
TTITLE1=Blind Willie Johnson - I'm Gonna Run to the City of Refuge
TTITLE2=Washington Phillips/Denomination Blues (part 1)
TTITLE3=Washington Phillips/Denomination Blues (part 2)
TTITLE4=Arizona Dranes - God's Got a Crown
TTITLE5=Arizona Dranes - He Is My Story
TTITLE6=Joshua White/Jesus Gonna Make Up My Dying Bed
TTITLE7=Joshua White - While The Blood Runs Warm In Your Veins
TTITLE8=Elder Charlie Beck/Drinking Shine
TTITLE9=Blind Gary Davis - Lord, I Wish I Could See
TTITLE10=Jessie May Hill - Unititled
TTITLE11=Jessie May Hill - Sunshine In the Shadows
TTITLE12=Washington Phillips - You Can't Stop a Tattler - Part 1
TTITLE13=Washington Phillips - You Can't Stop a Tattler - Part 2
TTITLE14=Rev. Johnny Blakey/King of Kings
TTITLE15=Rev. Johnny Blakey/Jesus Was Here On Business
TTITLE16=The Blue Chips/Crying Holy Unto The Lord
TTITLE17=The Blue Chips/Stay On The Right Side Of The Road
TTITLE18=Sister O.M. Terrell - The Bible's Right
TTITLE19=Sister O.M. Terrell/I'm Going To That City
EXTD=YEAR: 1991 ID3G:   0
EXTT0=
EXTT1=
EXTT2=
EXTT3=
EXTT4=
EXTT5=
EXTT6=
EXTT7=
EXTT8=
EXTT9=
EXTT10=
EXTT11=
EXTT12=
EXTT13=
EXTT14=
EXTT15=
EXTT16=
EXTT17=
EXTT18=
EXTT19=
PLAYORDER=
